# xmcd CD database file
#
# Track frame offsets:
#	150
#	12412
#	26030
#	41571
#	54458
#	68077
#	77786
#	88831
#	101397
#	112931
#	122658
#	135559
#	149560
#	162084
#	175341
#	188106
#	201771
#	214833
#	228555
#	242696
#	253336
#	269447
#	284323
#	299573
#	315475
#
# Disc length: 4400 seconds
#
# Revision: 1
# Processed by: cddbd v1.5.2PL0 Copyright (c) Steve Scherf et al.
# Submitted via: CDex 1.51
#
DISCID=75112e19
DTITLE=Bea Wain - The Complete Recordings, Vol. 2
DYEAR=2002
DGENRE=Jazz
TTITLE0=Go Fly A Kite
TTITLE1=Glad To Be Unhappy
TTITLE2=When Love Beckoned
TTITLE3=It's A Lovely Day Tomorrow
TTITLE4=It's Somebody Else
TTITLE5=Hello Ma I Done It Again
TTITLE6=How Did It Get So Late So Early
TTITLE7=Kiss The Boys Goodbye
TTITLE8=That's How I Got My Start
TTITLE9=Peekaboo To You
TTITLE10=You Started Something
TTITLE11=God Bless The Child
TTITLE12=Sometimes I Feel Like A Motherless Child
TTITLE13=The Birth Of The Blues
TTITLE14=You'll Never Know
TTITLE15=Baby Mine
TTITLE16=The Lady Who Walks Alone
TTITLE17=That's How I Love The Blues
TTITLE18=Ev'ry Time
TTITLE19=My Reverie
TTITLE20=You Made Me Love You
TTITLE21=My Man Is A Handy Man
TTITLE22=Trouble Is A Man
TTITLE23=Fools Rush In - Everything I Have Is Yours
TTITLE24=The Gentleman Is A Dope
EXTD=YEAR: 2002
EXTT0=
EXTT1=
EXTT2=
EXTT3=
EXTT4=
EXTT5=
EXTT6=
EXTT7=
EXTT8=
EXTT9=
EXTT10=
EXTT11=
EXTT12=
EXTT13=
EXTT14=
EXTT15=
EXTT16=
EXTT17=
EXTT18=
EXTT19=
EXTT20=
EXTT21=
EXTT22=
EXTT23=
EXTT24=
PLAYORDER=
